<svg xmlns="http://www.w3.org/2000/svg" viewBox="0 0 100 100" fill="none">
  <defs>
    <radialGradient id="bg" cx="50%" cy="50%" r="50%">
      <stop offset="0%" stop-color="#1a1a1a"/>
      <stop offset="100%" stop-color="#0d0d0d"/>
    </radialGradient>
  </defs>
  <rect width="100" height="100" rx="22" fill="url(#bg)"/>
  <polygon points="0,0 0,100 26,78 26,22" fill="#181818"/>
  <polygon points="100,0 100,100 74,78 74,22" fill="#202020"/>
  <polygon points="0,0 100,0 74,22 26,22" fill="#161616"/>
  <polygon points="0,100 100,100 74,78 26,78" fill="#141414"/>
  <rect x="26" y="22" width="48" height="56" fill="#111111" stroke="#2a2a2a" stroke-width="1.2"/>
  <line x1="0" y1="0" x2="50" y2="50" stroke="#00c896" stroke-width="0.8" opacity="0.22"/>
  <line x1="100" y1="0" x2="50" y2="50" stroke="#00c896" stroke-width="0.8" opacity="0.22"/>
  <line x1="0" y1="100" x2="50" y2="50" stroke="#00c896" stroke-width="0.8" opacity="0.22"/>
  <line x1="100" y1="100" x2="50" y2="50" stroke="#00c896" stroke-width="0.8" opacity="0.22"/>
  <ellipse cx="50" cy="50" rx="3.5" ry="4.5" fill="#00c896" opacity="0.5"/>
  <ellipse cx="50" cy="50" rx="1.5" ry="2" fill="#00c896"/>
  <circle cx="50" cy="43" r="3.5" fill="#00c896"/>
  <rect x="47" y="47.5" width="6" height="10" rx="1.5" fill="#00c896"/>
  <rect x="63" y="40" width="9" height="22" rx="1.5" fill="none" stroke="#00c896" stroke-width="1" opacity="0.45"/>
</svg>