<svg xmlns="http://www.w3.org/2000/svg" viewBox="0 0 100 100" fill="none">
  <rect width="100" height="100" rx="22" fill="#0d0d1a"/>
  <rect width="100" height="100" rx="22" fill="none" stroke="#1e3a5f" stroke-width="1.5"/>
  <polygon points="0,0 0,100 26,78 26,22" fill="#0f1629"/>
  <polygon points="100,0 100,100 74,78 74,22" fill="#131a2e"/>
  <polygon points="0,0 100,0 74,22 26,22" fill="#0c1220"/>
  <polygon points="0,100 100,100 74,78 26,78" fill="#0a0f1a"/>
  <rect x="26" y="22" width="48" height="56" fill="#0d1117" stroke="#1e3a5f" stroke-width="1"/>
  <line x1="0" y1="0" x2="50" y2="50" stroke="#3b82f6" stroke-width="0.8" opacity="0.3"/>
  <line x1="100" y1="0" x2="50" y2="50" stroke="#3b82f6" stroke-width="0.8" opacity="0.3"/>
  <line x1="0" y1="100" x2="50" y2="50" stroke="#3b82f6" stroke-width="0.8" opacity="0.3"/>
  <line x1="100" y1="100" x2="50" y2="50" stroke="#3b82f6" stroke-width="0.8" opacity="0.3"/>
  <ellipse cx="50" cy="50" rx="3.5" ry="4.5" fill="#3b82f6" opacity="0.5"/>
  <ellipse cx="50" cy="50" rx="1.5" ry="2" fill="#3b82f6"/>
  <circle cx="50" cy="43" r="3.5" fill="#3b82f6"/>
  <rect x="47" y="47.5" width="6" height="10" rx="1.5" fill="#3b82f6"/>
  <rect x="63" y="40" width="9" height="22" rx="1.5" fill="none" stroke="#3b82f6" stroke-width="1" opacity="0.5"/>
</svg>